<?xml version="1.0" encoding="UTF-8"?>
<svg xmlns="http://www.w3.org/2000/svg" xmlns:xlink="http://www.w3.org/1999/xlink" width="38px" height="23px" viewBox="0 0 37 23" version="1.1">
<defs>
<clipPath id="clip1">
  <path d="M 0 0 L 37 0 L 37 22.582031 L 0 22.582031 Z M 0 0 "/>
</clipPath>
</defs>
<g id="surface1">
<g clip-path="url(#clip1)" clip-rule="nonzero">
<path style=" stroke:none;fill-rule:evenodd;fill:rgb(21.960784%,74.117647%,97.254902%);fill-opacity:1;" d="M 18.5 0 C 13.566406 0 10.484375 2.507812 9.25 7.527344 C 11.101562 5.019531 13.257812 4.078125 15.726562 4.703125 C 17.132812 5.0625 18.136719 6.101562 19.25 7.25 C 21.066406 9.125 23.164062 11.289062 27.75 11.289062 C 32.683594 11.289062 35.765625 8.78125 37 3.761719 C 35.148438 6.273438 32.992188 7.214844 30.523438 6.585938 C 29.117188 6.230469 28.113281 5.191406 27 4.039062 C 25.183594 2.167969 23.085938 0 18.5 0 Z M 9.25 11.289062 C 4.316406 11.289062 1.234375 13.800781 0 18.816406 C 1.851562 16.308594 4.007812 15.367188 6.476562 15.996094 C 7.882812 16.355469 8.886719 17.390625 10 18.542969 C 11.816406 20.414062 13.914062 22.582031 18.5 22.582031 C 23.433594 22.582031 26.515625 20.074219 27.75 15.054688 C 25.898438 17.5625 23.742188 18.503906 21.273438 17.878906 C 19.867188 17.519531 18.863281 16.480469 17.75 15.332031 C 15.933594 13.457031 13.835938 11.289062 9.25 11.289062 Z M 9.25 11.289062 "/>
</g>
</g>
</svg>
